<svg width="50" height="51" viewBox="0 0 50 51" fill="none" xmlns="http://www.w3.org/2000/svg">
<path d="M36.7077 22.8957C35.8119 22.8957 35.1035 22.1665 35.1035 21.2915C35.1035 20.5207 34.3327 18.9165 33.041 17.5207C31.7702 16.1665 30.3743 15.3748 29.2077 15.3748C28.3118 15.3748 27.6035 14.6457 27.6035 13.7707C27.6035 12.8957 28.3327 12.1665 29.2077 12.1665C31.291 12.1665 33.4785 13.2915 35.3952 15.3123C37.1868 17.2082 38.3327 19.5623 38.3327 21.2707C38.3327 22.1665 37.6035 22.8957 36.7077 22.8957Z" fill="#103559"/>
<path d="M44.2292 22.8957C43.3333 22.8957 42.625 22.1665 42.625 21.2915C42.625 13.8957 36.6042 7.89567 29.2292 7.89567C28.3333 7.89567 27.625 7.1665 27.625 6.2915C27.625 5.4165 28.3333 4.6665 29.2083 4.6665C38.375 4.6665 45.8333 12.1248 45.8333 21.2915C45.8333 22.1665 45.1042 22.8957 44.2292 22.8957Z" fill="#103559"/>
<path d="M23.0202 31.6457L19.166 35.4998C18.3535 36.3123 17.0618 36.3123 16.2285 35.5207C15.9993 35.2915 15.7702 35.0832 15.541 34.854C13.3952 32.6873 11.4577 30.4165 9.72852 28.0415C8.02018 25.6665 6.64518 23.2915 5.64518 20.9373C4.66602 18.5623 4.16602 16.2915 4.16602 14.1248C4.16602 12.7082 4.41602 11.354 4.91602 10.104C5.41602 8.83317 6.20768 7.6665 7.31185 6.62484C8.64518 5.31234 10.1035 4.6665 11.6452 4.6665C12.2285 4.6665 12.8118 4.7915 13.3327 5.0415C13.8743 5.2915 14.3535 5.6665 14.7285 6.20817L19.5618 13.0207C19.9368 13.5415 20.2077 14.0207 20.3952 14.479C20.5827 14.9165 20.6868 15.354 20.6868 15.7498C20.6868 16.2498 20.541 16.7498 20.2493 17.229C19.9785 17.7082 19.5827 18.2082 19.0827 18.7082L17.4993 20.354C17.2702 20.5832 17.166 20.854 17.166 21.1873C17.166 21.354 17.1868 21.4998 17.2285 21.6665C17.291 21.8332 17.3535 21.9582 17.3952 22.0832C17.7702 22.7707 18.416 23.6665 19.3327 24.7498C20.2702 25.8332 21.2702 26.9373 22.3535 28.0415C22.5618 28.2498 22.791 28.4582 22.9993 28.6665C23.8327 29.479 23.8535 30.8123 23.0202 31.6457Z" fill="#103559"/>
<path d="M45.7708 38.6875C45.7708 39.2708 45.6667 39.875 45.4583 40.4583C45.3958 40.625 45.3333 40.7917 45.25 40.9583C44.8958 41.7083 44.4375 42.4167 43.8333 43.0833C42.8125 44.2083 41.6875 45.0208 40.4167 45.5417C40.3958 45.5417 40.375 45.5625 40.3542 45.5625C39.125 46.0625 37.7917 46.3333 36.3542 46.3333C34.2292 46.3333 31.9583 45.8333 29.5625 44.8125C27.1667 43.7917 24.7708 42.4167 22.3958 40.6875C21.5833 40.0833 20.7708 39.4792 20 38.8333L26.8125 32.0208C27.3958 32.4583 27.9167 32.7917 28.3542 33.0208C28.4583 33.0625 28.5833 33.125 28.7292 33.1875C28.8958 33.25 29.0625 33.2708 29.25 33.2708C29.6042 33.2708 29.875 33.1458 30.1042 32.9167L31.6875 31.3542C32.2083 30.8333 32.7083 30.4375 33.1875 30.1875C33.6667 29.8958 34.1458 29.75 34.6667 29.75C35.0625 29.75 35.4792 29.8333 35.9375 30.0208C36.3958 30.2083 36.875 30.4792 37.3958 30.8333L44.2917 35.7292C44.8333 36.1042 45.2083 36.5417 45.4375 37.0625C45.6458 37.5833 45.7708 38.1042 45.7708 38.6875Z" fill="#103559"/>
</svg>
