<svg width="50" height="51" viewBox="0 0 50 51" fill="none" xmlns="http://www.w3.org/2000/svg">
<path d="M27.3952 32.5207C26.9368 31.854 26.1244 31.479 25.1869 31.479H20.3327C20.0202 31.479 19.7077 31.354 19.5202 31.104C19.3118 30.854 19.2285 30.5415 19.2702 30.1873L19.8744 26.3123C20.1244 25.1665 19.3535 23.854 18.2077 23.4582C17.1243 23.0623 15.8743 23.604 15.3535 24.3748L10.541 31.5415V30.6457C10.541 28.8957 9.79102 28.1873 7.95768 28.1873H6.74935C4.91602 28.2082 4.16602 28.9165 4.16602 30.6665V42.5623C4.16602 44.3123 4.91602 45.0207 6.74935 45.0207H7.95768C9.70768 45.0207 10.4368 44.3332 10.4993 42.7498L14.1452 45.5623C14.666 46.0623 15.7702 46.3332 16.5618 46.3332H21.166C22.7493 46.3332 24.3327 45.1457 24.7077 43.6873L27.6244 34.8332C27.9369 33.979 27.8535 33.1665 27.3952 32.5207Z" fill="#103559"/>
<path d="M43.9786 5.9375H42.7703C41.0203 5.9375 40.2911 6.625 40.2078 8.20833L36.562 5.39583C36.062 4.89583 34.937 4.625 34.1453 4.625H29.5411C27.9578 4.625 26.3745 5.8125 25.9995 7.27083L23.0828 16.125C22.7703 16.9792 22.8745 17.7917 23.312 18.4375C23.7703 19.1042 24.5828 19.4792 25.5203 19.4792H30.3745C30.687 19.4792 30.9995 19.6042 31.187 19.8542C31.3953 20.1042 31.4786 20.4167 31.437 20.7708L30.8328 24.6458C30.5828 25.7917 31.3536 27.1042 32.4995 27.5C33.5828 27.8958 34.8328 27.3542 35.3536 26.5833L40.1661 19.4167V20.3125C40.1661 22.0625 40.9161 22.7708 42.7495 22.7708H43.9578C45.7911 22.7708 46.5411 22.0625 46.5411 20.3125V8.375C46.562 6.64583 45.812 5.9375 43.9786 5.9375Z" fill="#103559"/>
</svg>
