<svg width="50" height="51" viewBox="0 0 50 51" fill="none" xmlns="http://www.w3.org/2000/svg">
<path d="M18.7493 4.6665C13.291 4.6665 8.85352 9.104 8.85352 14.5623C8.85352 19.9165 13.041 24.2498 18.4993 24.4373C18.666 24.4165 18.8327 24.4165 18.9577 24.4373C18.9993 24.4373 19.0202 24.4373 19.0618 24.4373C19.0827 24.4373 19.0827 24.4373 19.1035 24.4373C24.4368 24.2498 28.6243 19.9165 28.6452 14.5623C28.6452 9.104 24.2077 4.6665 18.7493 4.6665Z" fill="#103559"/>
<path d="M29.334 29.979C23.5215 26.104 14.0423 26.104 8.18815 29.979C5.54232 31.7498 4.08398 34.1457 4.08398 36.7082C4.08398 39.2707 5.54232 41.6457 8.16732 43.3957C11.084 45.354 14.9173 46.3332 18.7507 46.3332C22.584 46.3332 26.4173 45.354 29.334 43.3957C31.959 41.6248 33.4173 39.2498 33.4173 36.6665C33.3965 34.104 31.959 31.729 29.334 29.979Z" fill="#103559"/>
<path d="M41.6465 15.7917C41.9798 19.8334 39.1048 23.375 35.1257 23.8542C35.1048 23.8542 35.1048 23.8542 35.084 23.8542H35.0215C34.8965 23.8542 34.7715 23.8542 34.6673 23.8959C32.6465 24 30.7923 23.3542 29.3965 22.1667C31.5423 20.25 32.7715 17.375 32.5215 14.25C32.3757 12.5625 31.7923 11.0209 30.9173 9.70838C31.709 9.31255 32.6257 9.06255 33.5632 8.97921C37.6465 8.62505 41.2923 11.6667 41.6465 15.7917Z" fill="#103559"/>
<path d="M45.8132 35.0627C45.6465 37.0835 44.3548 38.8335 42.1882 40.021C40.1048 41.1668 37.4798 41.7085 34.8757 41.646C36.3757 40.2918 37.2506 38.6043 37.4173 36.8127C37.6256 34.2293 36.3965 31.7502 33.9382 29.771C32.5423 28.6668 30.9173 27.7918 29.1465 27.146C33.7507 25.8127 39.5423 26.7085 43.1048 29.5835C45.0215 31.1252 46.0007 33.0627 45.8132 35.0627Z" fill="#103559"/>
</svg>
